<svg xmlns="http://www.w3.org/2000/svg">
  <symbol id="bluesky-icon" viewBox="0 0 16 17">
    <g clip-path="url(#bluesky-clip)"><path fill="#08060d" d="M7.75 7.735c-.693-1.348-2.58-3.86-4.334-5.097-1.68-1.187-2.32-.981-2.74-.79C.188 2.065.1 2.812.1 3.251s.241 3.602.398 4.13c.52 1.744 2.1 3.174 4.064 3.174 1.86 0 3.38-1.27 3.911-2.92.265-.79.277-1.59 0-2.87Zm.5 0c.693-1.348 2.58-3.86 4.334-5.097 1.68-1.187 2.32-.981 2.74-.79 1.488.601 1.576 1.348 1.576 1.787s-.241 3.602-.398 4.13c-.52 1.744-2.1 3.174-4.064 3.174-1.86 0-3.38-1.27-3.911-2.92-.265-.79-.277-1.59 0-2.87Z" clip-rule="evenodd"/></g>
    <defs><clipPath id="bluesky-clip"><path fill="#fff" d="M.1.85h15.3v15.3H.1z"/></clipPath></defs>
  </symbol>
</svg>